<svg xmlns="http://www.w3.org/2000/svg" version="1.1" xmlns:xlink="http://www.w3.org/1999/xlink" xmlns:svgjs="http://svgjs.dev/svgjs" width="1500" height="1500" viewBox="0 0 1500 1500"><rect width="1500" height="1500" fill="#dee5ed"></rect><g transform="matrix(0.6666666666666666,0,0,0.6666666666666666,249.39393939393938,570.0871379625561)"><svg viewBox="0 0 396 143" data-background-color="#dee5ed" preserveAspectRatio="xMidYMid meet" height="541" width="1500" xmlns="http://www.w3.org/2000/svg" xmlns:xlink="http://www.w3.org/1999/xlink"><g id="tight-bounds" transform="matrix(1,0,0,1,0.2400000000000091,-0.1667118169468722)"><svg viewBox="0 0 395.52 143.33342363389372" height="143.33342363389372" width="395.52"><g><svg viewBox="0 0 652.581081229274 236.4903938392494" height="143.33342363389372" width="395.52"><g transform="matrix(1,0,0,1,257.061081229274,32.68427295462854)"><svg viewBox="0 0 395.52 171.12184792999233" height="171.12184792999233" width="395.52"><g id="textblocktransform"><svg viewBox="0 0 395.52 171.12184792999233" height="171.12184792999233" width="395.52" id="textblock"><g><svg viewBox="0 0 395.52 95.85619623875715" height="95.85619623875715" width="395.52"><g transform="matrix(1,0,0,1,0,0)"><svg width="395.52" viewBox="3.74 -35.69 149.28 36.18" height="95.85619623875715" data-palette-color="#001f3f"><g class="wordmark-text-0" data-fill-palette-color="primary" id="text-0"><path d="M3.74-2.39L5.49-5.76Q10.52-2.95 15.6-2.95L15.6-2.95Q19.82-2.95 20.56-5.96L20.56-5.96Q20.8-6.98 20.8-8.46 20.8-9.94 20.46-10.75 20.12-11.57 19.31-11.98 18.51-12.38 17.18-12.57 15.84-12.77 13.79-13.12 11.74-13.48 10.03-13.92 8.33-14.36 7.13-15.19L7.13-15.19Q4.59-16.97 4.69-21.19L4.69-21.19 4.69-21.8Q4.69-26.25 7.62-28.13L7.62-28.13Q10.45-29.98 16.97-29.39L16.97-29.39Q21.41-28.98 24.05-27.86L24.05-27.86 22.9-24.17Q19.97-25.42 15.87-25.98L15.87-25.98Q14.6-26.15 13.49-26.15 12.38-26.15 11.47-25.98 10.57-25.81 9.96-25.34L9.96-25.34Q8.79-24.39 8.74-21.8L8.74-21.8Q8.67-18.75 10.45-17.92L10.45-17.92Q12.16-17.11 14.5-16.81 16.85-16.5 18.33-16.27 19.82-16.04 21.04-15.65 22.27-15.26 23.14-14.4L23.14-14.4Q24.98-12.67 24.93-8.37L24.93-8.37Q24.8-0.88 18.68 0.17L18.68 0.17Q16.82 0.49 14.97 0.49 13.11 0.49 11.56 0.26 10.01 0.02 8.59-0.39L8.59-0.39Q5.91-1.15 3.74-2.39L3.74-2.39ZM47.39-25.73L47.39-25.73Q43.41-25.73 38.69-22.92L38.69-22.92 38.69 0 34.64 0 34.64-29.05 38.21-29.05 38.6-26.05Q42.87-29.54 48.17-29.54L48.17-29.54Q51.19-29.54 52.94-28.67 54.69-27.81 55.47-25.83L55.47-25.83Q60.86-29.54 65.72-29.54L65.72-29.54Q70.31-29.54 72.09-27.44L72.09-27.44Q73.8-25.42 73.8-20.24L73.8-20.24 73.8 0 69.7 0 69.7-19.48Q69.7-23 69.02-24.01 68.33-25.02 67.39-25.38 66.45-25.73 65.2-25.73 63.94-25.73 62.83-25.5 61.72-25.27 60.57-24.88L60.57-24.88Q58.25-24.07 56.13-22.83L56.13-22.83Q56.25-21.36 56.25-20.24L56.25-20.24 56.25 0 52.15 0 52.15-19.48Q52.15-23 51.46-24.01 50.78-25.02 49.84-25.38 48.9-25.73 47.39-25.73ZM106.81-19.41L106.81-10.3Q106.81-5.44 107.27-0.2L107.27-0.2 103.66 0.1 103.05-3.3Q99.95-0.81 94.84 0.17L94.84 0.17Q93.18 0.49 91.89 0.49 90.6 0.49 89.61 0.37 88.62 0.24 87.7-0.11 86.79-0.46 86.01-1.1 85.22-1.73 84.64-2.78L84.64-2.78Q83.39-5 83.39-8.12 83.39-11.23 83.85-12.95 84.3-14.67 85.35-15.82L85.35-15.82Q87.42-18.09 92.33-18.09 97.24-18.09 102.8-16.24L102.8-16.24 102.8-19.41Q102.8-24.71 98.43-25.68L98.43-25.68Q97.02-26 95.19-26L95.19-26Q91.01-26 86.52-24.34L86.52-24.34 85.62-27.86Q86.86-28.69 91.96-29.35L91.96-29.35Q93.57-29.54 95.83-29.54 98.09-29.54 100.26-29 102.44-28.47 103.88-27.25L103.88-27.25Q106.81-24.83 106.81-19.41L106.81-19.41ZM102.7-13.18L102.7-13.18Q96.99-14.62 92.16-14.62L92.16-14.62Q89.18-14.62 88.2-12.92L88.2-12.92Q87.54-11.72 87.54-9.38 87.54-7.03 87.8-5.98 88.06-4.93 88.64-4.25L88.64-4.25Q89.79-2.95 92.43-2.95L92.43-2.95Q96.55-2.95 100.61-5.08L100.61-5.08Q101.85-5.71 102.85-6.49L102.85-6.49Q102.7-9.13 102.7-13.18ZM128.29-25.51L128.29-25.51Q125.16-25.51 121.92-22.39L121.92-22.39 121.92 0 117.86 0 117.86-29.05 121.43-29.05 121.82-25.2Q122.97-26.98 124.3-27.98 125.63-28.98 126.48-29.2L126.48-29.2Q127.7-29.54 128.8-29.54 129.9-29.54 131.56-29.1L131.56-29.1 131.19-25.22Q129.95-25.51 128.29-25.51ZM151.63-4.57L153.02-1.39Q149.04 0.49 145.67 0.49L145.67 0.49Q139.57 0.49 138.74-4.74L138.74-4.74Q138.54-5.98 138.54-8.35L138.54-8.35 138.54-25.66 135.02-25.66 135.02-28.66 138.54-29.05 139.17-35.69 142.57-35.69 142.57-29.05 151.04-29.05 151.04-25.66 142.57-25.66 142.57-8.42Q142.57-5.42 143.01-4.59L143.01-4.59Q143.81-3.08 146.23-3.08 148.65-3.08 151.63-4.57L151.63-4.57Z" fill="#001f3f" data-fill-palette-color="primary"></path></g></svg></g></svg></g><g transform="matrix(1,0,0,1,0,118.48554362201799)"><svg viewBox="0 0 375.74399999999997 52.63630430797433" height="52.63630430797433" width="375.74399999999997"><g transform="matrix(1,0,0,1,0,0)"><svg width="375.74399999999997" viewBox="2.3 -35.6 327.27 45.85" height="52.63630430797433" data-palette-color="#001f3f"><path d="M13.95 0.6L13.95 0.6Q11.5 0.6 9.38-0.28 7.25-1.15 5.68-2.78 4.1-4.4 3.2-6.75 2.3-9.1 2.3-12.1L2.3-12.1Q2.3-15.1 3.23-17.48 4.15-19.85 5.68-21.5 7.2-23.15 9.15-24.03 11.1-24.9 13.2-24.9L13.2-24.9Q15.5-24.9 17.32-24.1 19.15-23.3 20.38-21.8 21.6-20.3 22.25-18.2 22.9-16.1 22.9-13.5L22.9-13.5Q22.9-12.85 22.88-12.23 22.85-11.6 22.75-11.15L22.75-11.15 6.35-11.15Q6.6-7.25 8.78-4.98 10.95-2.7 14.45-2.7L14.45-2.7Q16.2-2.7 17.68-3.23 19.15-3.75 20.5-4.6L20.5-4.6 21.95-1.9Q20.35-0.9 18.4-0.15 16.45 0.6 13.95 0.6ZM6.3-14.1L6.3-14.1 19.3-14.1Q19.3-17.8 17.73-19.73 16.15-21.65 13.3-21.65L13.3-21.65Q12-21.65 10.83-21.15 9.65-20.65 8.7-19.68 7.75-18.7 7.13-17.3 6.5-15.9 6.3-14.1ZM29.45 0L25.15 0 33.1-12.7 25.75-24.3 30.2-24.3 33.45-18.95Q34-17.95 34.6-16.93 35.2-15.9 35.85-14.9L35.85-14.9 36.05-14.9Q36.6-15.9 37.15-16.93 37.7-17.95 38.25-18.95L38.25-18.95 41.2-24.3 45.5-24.3 38.15-12.25 46.05 0 41.6 0 38.05-5.65Q37.4-6.75 36.75-7.85 36.1-8.95 35.4-10L35.4-10 35.2-10Q34.55-8.95 33.95-7.88 33.35-6.8 32.75-5.65L32.75-5.65 29.45 0ZM54.95 10.25L50.85 10.25 50.85-24.3 54.25-24.3 54.6-21.5 54.75-21.5Q56.4-22.9 58.37-23.9 60.35-24.9 62.5-24.9L62.5-24.9Q64.84-24.9 66.65-24.03 68.45-23.15 69.65-21.53 70.84-19.9 71.47-17.63 72.09-15.35 72.09-12.5L72.09-12.5Q72.09-9.4 71.25-6.98 70.4-4.55 68.95-2.85 67.5-1.15 65.59-0.28 63.7 0.6 61.6 0.6L61.6 0.6Q59.9 0.6 58.22-0.15 56.55-0.9 54.85-2.2L54.85-2.2 54.95 2.05 54.95 10.25ZM60.9-2.85L60.9-2.85Q62.4-2.85 63.67-3.53 64.95-4.2 65.87-5.43 66.8-6.65 67.32-8.45 67.84-10.25 67.84-12.5L67.84-12.5Q67.84-14.5 67.5-16.15 67.15-17.8 66.37-18.98 65.59-20.15 64.37-20.8 63.15-21.45 61.45-21.45L61.45-21.45Q59.9-21.45 58.32-20.6 56.75-19.75 54.95-18.15L54.95-18.15 54.95-5.4Q56.6-4 58.15-3.43 59.7-2.85 60.9-2.85ZM88.44 0.6L88.44 0.6Q85.99 0.6 83.87-0.28 81.74-1.15 80.17-2.78 78.59-4.4 77.69-6.75 76.79-9.1 76.79-12.1L76.79-12.1Q76.79-15.1 77.72-17.48 78.64-19.85 80.17-21.5 81.69-23.15 83.64-24.03 85.59-24.9 87.69-24.9L87.69-24.9Q89.99-24.9 91.82-24.1 93.64-23.3 94.87-21.8 96.09-20.3 96.74-18.2 97.39-16.1 97.39-13.5L97.39-13.5Q97.39-12.85 97.37-12.23 97.34-11.6 97.24-11.15L97.24-11.15 80.84-11.15Q81.09-7.25 83.27-4.98 85.44-2.7 88.94-2.7L88.94-2.7Q90.69-2.7 92.17-3.23 93.64-3.75 94.99-4.6L94.99-4.6 96.44-1.9Q94.84-0.9 92.89-0.15 90.94 0.6 88.44 0.6ZM80.79-14.1L80.79-14.1 93.79-14.1Q93.79-17.8 92.22-19.73 90.64-21.65 87.79-21.65L87.79-21.65Q86.49-21.65 85.32-21.15 84.14-20.65 83.19-19.68 82.24-18.7 81.62-17.3 80.99-15.9 80.79-14.1ZM107.49 0L103.39 0 103.39-24.3 106.79-24.3 107.14-20.8 107.29-20.8Q109.04-22.55 110.97-23.73 112.89-24.9 115.44-24.9L115.44-24.9Q119.29-24.9 121.07-22.5 122.84-20.1 122.84-15.4L122.84-15.4 122.84 0 118.74 0 118.74-14.85Q118.74-18.3 117.64-19.83 116.54-21.35 114.14-21.35L114.14-21.35Q112.24-21.35 110.79-20.4 109.34-19.45 107.49-17.6L107.49-17.6 107.49 0ZM137.09 0.6L137.09 0.6Q134.49 0.6 132.14-0.35 129.79-1.3 128.04-2.75L128.04-2.75 130.09-5.5Q131.69-4.2 133.36-3.4 135.04-2.6 137.24-2.6L137.24-2.6Q139.64-2.6 140.84-3.7 142.04-4.8 142.04-6.4L142.04-6.4Q142.04-7.35 141.54-8.05 141.04-8.75 140.26-9.28 139.49-9.8 138.49-10.2 137.49-10.6 136.49-11L136.49-11Q135.19-11.45 133.89-12.03 132.59-12.6 131.56-13.43 130.54-14.25 129.89-15.35 129.24-16.45 129.24-18L129.24-18Q129.24-19.45 129.81-20.73 130.39-22 131.46-22.93 132.54-23.85 134.09-24.38 135.64-24.9 137.59-24.9L137.59-24.9Q139.89-24.9 141.81-24.1 143.74-23.3 145.14-22.15L145.14-22.15 143.19-19.55Q141.94-20.5 140.59-21.1 139.24-21.7 137.64-21.7L137.64-21.7Q135.34-21.7 134.26-20.65 133.19-19.6 133.19-18.2L133.19-18.2Q133.19-17.35 133.64-16.73 134.09-16.1 134.84-15.63 135.59-15.15 136.56-14.78 137.54-14.4 138.59-14L138.59-14Q139.89-13.5 141.21-12.95 142.54-12.4 143.59-11.58 144.64-10.75 145.31-9.55 145.99-8.35 145.99-6.65L145.99-6.65Q145.99-5.15 145.41-3.85 144.84-2.55 143.71-1.55 142.59-0.55 140.91 0.03 139.24 0.6 137.09 0.6ZM161.54 0.6L161.54 0.6Q159.09 0.6 156.96-0.28 154.84-1.15 153.26-2.78 151.69-4.4 150.79-6.75 149.89-9.1 149.89-12.1L149.89-12.1Q149.89-15.1 150.81-17.48 151.74-19.85 153.26-21.5 154.79-23.15 156.74-24.03 158.69-24.9 160.79-24.9L160.79-24.9Q163.09-24.9 164.91-24.1 166.74-23.3 167.96-21.8 169.19-20.3 169.84-18.2 170.49-16.1 170.49-13.5L170.49-13.5Q170.49-12.85 170.46-12.23 170.44-11.6 170.34-11.15L170.34-11.15 153.94-11.15Q154.19-7.25 156.36-4.98 158.54-2.7 162.04-2.7L162.04-2.7Q163.79-2.7 165.26-3.23 166.74-3.75 168.09-4.6L168.09-4.6 169.54-1.9Q167.94-0.9 165.99-0.15 164.04 0.6 161.54 0.6ZM153.89-14.1L153.89-14.1 166.89-14.1Q166.89-17.8 165.31-19.73 163.74-21.65 160.89-21.65L160.89-21.65Q159.59-21.65 158.41-21.15 157.24-20.65 156.29-19.68 155.34-18.7 154.71-17.3 154.09-15.9 153.89-14.1ZM194.13 0.6L194.13 0.6Q192.18 0.6 190.86 0 189.53-0.6 188.71-1.65 187.88-2.7 187.53-4.2 187.18-5.7 187.18-7.5L187.18-7.5 187.18-20.95 183.58-20.95 183.58-24.05 187.38-24.3 187.88-31.1 191.33-31.1 191.33-24.3 197.88-24.3 197.88-20.95 191.33-20.95 191.33-7.45Q191.33-5.2 192.16-3.98 192.98-2.75 195.08-2.75L195.08-2.75Q195.73-2.75 196.48-2.95 197.23-3.15 197.83-3.4L197.83-3.4 198.63-0.3Q197.63 0.05 196.46 0.33 195.28 0.6 194.13 0.6ZM207.48 0L203.38 0 203.38-24.3 206.78-24.3 207.13-19.9 207.28-19.9Q208.53-22.2 210.3-23.55 212.08-24.9 214.18-24.9L214.18-24.9Q215.63-24.9 216.78-24.4L216.78-24.4 215.98-20.8Q215.38-21 214.88-21.1 214.38-21.2 213.63-21.2L213.63-21.2Q212.08-21.2 210.4-19.95 208.73-18.7 207.48-15.6L207.48-15.6 207.48 0ZM225.13 0.6L225.13 0.6Q222.08 0.6 220.05-1.2 218.03-3 218.03-6.3L218.03-6.3Q218.03-10.3 221.58-12.43 225.13-14.55 232.93-15.4L232.93-15.4Q232.93-16.55 232.7-17.65 232.48-18.75 231.93-19.6 231.38-20.45 230.4-20.98 229.43-21.5 227.93-21.5L227.93-21.5Q225.83-21.5 223.98-20.7 222.13-19.9 220.68-18.9L220.68-18.9 219.08-21.75Q220.78-22.85 223.23-23.88 225.68-24.9 228.63-24.9L228.63-24.9Q233.08-24.9 235.08-22.18 237.08-19.45 237.08-14.9L237.08-14.9 237.08 0 233.68 0 233.33-2.9 233.18-2.9Q231.43-1.45 229.43-0.43 227.43 0.6 225.13 0.6ZM226.33-2.7L226.33-2.7Q228.08-2.7 229.63-3.53 231.18-4.35 232.93-5.95L232.93-5.95 232.93-12.7Q229.88-12.3 227.8-11.75 225.73-11.2 224.45-10.45 223.18-9.7 222.6-8.72 222.03-7.75 222.03-6.6L222.03-6.6Q222.03-4.5 223.28-3.6 224.53-2.7 226.33-2.7ZM254.32 0.6L254.32 0.6Q251.92 0.6 249.82-0.25 247.72-1.1 246.2-2.73 244.67-4.35 243.8-6.73 242.92-9.1 242.92-12.1L242.92-12.1Q242.92-15.15 243.87-17.53 244.82-19.9 246.42-21.55 248.02-23.2 250.15-24.05 252.27-24.9 254.62-24.9L254.62-24.9Q257.02-24.9 258.72-24.05 260.42-23.2 261.72-22.05L261.72-22.05 259.62-19.35Q258.57-20.3 257.4-20.9 256.22-21.5 254.77-21.5L254.77-21.5Q253.12-21.5 251.72-20.83 250.32-20.15 249.32-18.9 248.32-17.65 247.75-15.93 247.17-14.2 247.17-12.1L247.17-12.1Q247.17-10 247.72-8.3 248.27-6.6 249.25-5.38 250.22-4.15 251.62-3.48 253.02-2.8 254.67-2.8L254.67-2.8Q256.37-2.8 257.8-3.53 259.22-4.25 260.37-5.25L260.37-5.25 262.17-2.5Q260.52-1.05 258.52-0.23 256.52 0.6 254.32 0.6ZM271.57 0L267.52 0 267.52-35.6 271.57-35.6 271.57-11.5 271.72-11.5 282.07-24.3 286.62-24.3 278.47-14.55 287.72 0 283.22 0 276.12-11.7 271.57-6.4 271.57 0ZM301.22 0.6L301.22 0.6Q298.77 0.6 296.64-0.28 294.52-1.15 292.94-2.78 291.37-4.4 290.47-6.75 289.57-9.1 289.57-12.1L289.57-12.1Q289.57-15.1 290.49-17.48 291.42-19.85 292.94-21.5 294.47-23.15 296.42-24.03 298.37-24.9 300.47-24.9L300.47-24.9Q302.77-24.9 304.59-24.1 306.42-23.3 307.64-21.8 308.87-20.3 309.52-18.2 310.17-16.1 310.17-13.5L310.17-13.5Q310.17-12.85 310.14-12.23 310.12-11.6 310.02-11.15L310.02-11.15 293.62-11.15Q293.87-7.25 296.04-4.98 298.22-2.7 301.72-2.7L301.72-2.7Q303.47-2.7 304.94-3.23 306.42-3.75 307.77-4.6L307.77-4.6 309.22-1.9Q307.62-0.9 305.67-0.15 303.72 0.6 301.22 0.6ZM293.57-14.1L293.57-14.1 306.57-14.1Q306.57-17.8 304.99-19.73 303.42-21.65 300.57-21.65L300.57-21.65Q299.27-21.65 298.09-21.15 296.92-20.65 295.97-19.68 295.02-18.7 294.39-17.3 293.77-15.9 293.57-14.1ZM320.27 0L316.17 0 316.17-24.3 319.57-24.3 319.92-19.9 320.07-19.9Q321.32-22.2 323.09-23.55 324.87-24.9 326.97-24.9L326.97-24.9Q328.42-24.9 329.57-24.4L329.57-24.4 328.77-20.8Q328.17-21 327.67-21.1 327.17-21.2 326.42-21.2L326.42-21.2Q324.87-21.2 323.19-19.95 321.52-18.7 320.27-15.6L320.27-15.6 320.27 0Z" opacity="1" transform="matrix(1,0,0,1,0,0)" fill="#001f3f" class="slogan-text-1" data-fill-palette-color="secondary" id="text-1"></path></svg></g></svg></g></svg></g></svg></g><g><svg viewBox="0 0 234.4317338460132 236.4903938392494" height="236.4903938392494" width="234.4317338460132"><g><svg xmlns="http://www.w3.org/2000/svg" xmlns:xlink="http://www.w3.org/1999/xlink" version="1.1" x="0" y="0" viewBox="0.20867180711603336 0 47.58215774403713 48" enable-background="new 0 0 48 48" xml:space="preserve" height="236.4903938392494" width="234.4317338460132" class="icon-icon-0" data-fill-palette-color="accent" id="icon-0"><g fill="#001f3f" data-fill-palette-color="accent"><path d="M46.912 26.624c-0.529-0.08-1.035 0.282-1.119 0.817-1.688 10.777-10.846 18.6-21.774 18.6-11.051 0-20.448-8.252-21.858-19.194C2.091 26.311 1.593 25.938 1.063 26c-0.537 0.07-0.916 0.561-0.846 1.098C1.753 39.015 11.986 48 24.019 48c11.9 0 21.872-8.519 23.71-20.257C47.813 27.21 47.447 26.708 46.912 26.624z" fill="#001f3f" data-fill-palette-color="accent"></path><path d="M1.064 21.985c0.042 0.005 0.085 0.008 0.127 0.008 0.484 0 0.906-0.359 0.97-0.854C3.579 10.204 12.975 1.959 24.019 1.959c10.914 0 20.296 8.136 21.823 18.923 0.076 0.536 0.578 0.912 1.107 0.833 0.535-0.076 0.908-0.572 0.832-1.108C46.117 8.859 35.902 0 24.019 0 11.994 0 1.762 8.979 0.219 20.887 0.149 21.424 0.527 21.915 1.064 21.985z" fill="#001f3f" data-fill-palette-color="accent"></path><path d="M24.019 14.224c-5.391 0-9.776 4.386-9.776 9.776s4.386 9.776 9.776 9.776c5.392 0 9.776-4.386 9.776-9.776S29.41 14.224 24.019 14.224zM24.514 29.231v1.775h-1.075v-1.725c-0.989-0.017-2.013-0.323-2.612-0.752l0.41-1.143c0.615 0.41 1.502 0.733 2.458 0.733 1.212 0 2.032-0.699 2.032-1.671 0-0.939-0.666-1.521-1.93-2.032-1.74-0.684-2.815-1.469-2.815-2.953 0-1.417 1.006-2.493 2.577-2.748v-1.726h1.058v1.656c1.024 0.035 1.724 0.309 2.22 0.598l-0.428 1.127c-0.357-0.204-1.057-0.58-2.15-0.58-1.313 0-1.809 0.786-1.809 1.468 0 0.888 0.631 1.331 2.117 1.946 1.757 0.718 2.645 1.604 2.645 3.123C27.211 27.679 26.272 28.941 24.514 29.231z" fill="#001f3f" data-fill-palette-color="accent"></path><path d="M24.019 7.435C14.885 7.435 7.454 14.866 7.454 24s7.431 16.565 16.565 16.565S40.583 33.134 40.583 24 33.152 7.435 24.019 7.435zM24.019 35.736c-6.472 0-11.735-5.265-11.735-11.736s5.264-11.736 11.735-11.736S35.755 17.528 35.755 24 30.49 35.736 24.019 35.736z" fill="#001f3f" data-fill-palette-color="accent"></path></g></svg></g></svg></g></svg></g><defs></defs></svg><rect width="395.52" height="143.33342363389372" fill="none" stroke="none" visibility="hidden"></rect></g></svg></g></svg>